<?xml version="1.0" encoding="UTF-8" standalone="no"?>
<svg
   xmlns:dc="http://purl.org/dc/elements/1.1/"
   xmlns:cc="http://creativecommons.org/ns#"
   xmlns:rdf="http://www.w3.org/1999/02/22-rdf-syntax-ns#"
   xmlns:svg="http://www.w3.org/2000/svg"
   xmlns="http://www.w3.org/2000/svg"
   id="svg8"
   version="1.1"
   viewBox="0 0 185.91389 185.91252"
   height="185.91252mm"
   width="185.91389mm">
  <defs
     id="defs2" />
  <metadata
     id="metadata5">
    <rdf:RDF>
      <cc:Work
         rdf:about="">
        <dc:format>image/svg+xml</dc:format>
        <dc:type
           rdf:resource="http://purl.org/dc/dcmitype/StillImage" />
        <dc:title></dc:title>
      </cc:Work>
    </rdf:RDF>
  </metadata>
  <g
     transform="translate(-13.448273,-45.840111)"
     id="layer1">
    <g
       style="fill:#ffffff"
       transform="matrix(0.35277779,0,0,0.35277779,16.094106,48.485944)"
       id="g832">
      <path
         style="fill:#ffffff;stroke:#ffffff;stroke-width:15"
         d="M 510.46094,150.45312 C 509.21484,123.20313 504.88672,104.59375 498.55859,88.3125 492.13281,71.230469 482.05469,55.757812 469.03125,42.96875 456.24609,29.945312 440.76953,19.863281 423.6875,13.433594 407.40234,7.109375 388.79687,2.785156 361.54687,1.546875 334.24609,0.296875 325.52344,0 256,0 186.47656,0 177.75391,0.296875 150.45312,1.539062 123.20313,2.785156 104.59766,7.113281 88.3125,13.441406 71.230469,19.867188 55.757812,29.945312 42.96875,42.96875 29.945312,55.753906 19.863281,71.226562 13.433594,88.308594 7.109375,104.59375 2.785156,123.20313 1.546875,150.44922 0.296875,177.75391 0,186.47266 0,255.99609 c 0,69.52735 0.296875,78.25 1.546875,105.55078 1.242187,27.2461 5.570313,45.85547 11.898437,62.14063 6.425782,17.07812 16.503907,32.55469 29.527344,45.33984 12.785156,13.02344 28.261719,23.10157 45.34375,29.52735 16.281254,6.33203 34.890624,10.65625 62.140624,11.90234 27.30469,1.24609 36.02344,1.53906 105.54688,1.53906 69.52343,0 78.24609,-0.29297 105.54687,-1.53906 27.25,-1.24609 45.85547,-5.57031 62.14063,-11.90234 34.38671,-13.29688 61.57031,-40.48047 74.86718,-74.86719 6.33203,-16.28516 10.65625,-34.89453 11.90235,-62.14063 C 511.70313,334.24219 512,325.52344 512,256 c 0,-69.52734 -0.29688,-78.24609 -1.53906,-105.54688 z m -46.08203,208.9961 c -1.13672,24.96094 -5.3086,38.51562 -8.8125,47.53515 -8.61329,22.32813 -26.25782,39.97266 -48.58594,48.58594 -9.01953,3.50391 -22.57422,7.67578 -47.53516,8.8125 C 332.45703,465.61719 324.35938,465.875 256,465.875 c -68.36328,0 -76.45703,-0.25781 -103.44922,-1.49219 -24.95703,-1.13672 -38.51172,-5.30859 -47.53515,-8.8125 -11.117192,-4.10547 -21.175786,-10.64844 -29.433599,-19.15234 -8.503906,-8.25781 -15.046875,-18.3125 -19.152343,-29.4336 -3.503907,-9.01953 -7.675782,-22.57421 -8.8125,-47.53515 C 46.386719,332.45703 46.125,324.35937 46.125,256.00391 c 0,-68.35938 0.261719,-76.45313 1.492188,-103.44922 1.140624,-24.96094 5.308593,-38.51563 8.8125,-47.53516 4.105468,-11.121092 10.652343,-21.179686 19.152343,-29.437499 8.257813,-8.503906 18.316407,-15.046875 29.437499,-19.148437 9.01953,-3.507813 22.57422,-7.675782 47.53516,-8.816406 C 179.54688,46.386719 187.64453,46.125 256,46.125 h -0.004 c 68.35547,0 76.45313,0.261719 103.44922,1.496094 24.96094,1.136718 38.51172,5.308594 47.53516,8.8125 11.11719,4.105468 21.17578,10.648437 29.43359,19.148437 8.50391,8.257813 15.04688,18.316407 19.14844,29.437499 3.50781,9.01953 7.67969,22.57422 8.81641,47.53516 1.23047,26.99218 1.49218,35.08984 1.49218,103.44531 0,68.35937 -0.25781,76.45312 -1.49218,103.44922 z m 0,0"
         id="path815" />
      <path
         style="fill:#ffffff;stroke:#ffffff;stroke-width:15"
         d="m 255.99609,124.53906 c -72.60156,0 -131.45703,58.85938 -131.45703,131.46094 0,72.60156 58.85547,131.45703 131.45703,131.45703 72.60547,0 131.46094,-58.85547 131.46094,-131.45703 0,-72.60156 -58.85547,-131.46094 -131.46094,-131.46094 z m 0,216.79297 c -47.125,-0.004 -85.33203,-38.20703 -85.32812,-85.33594 0,-47.125 38.20312,-85.33203 85.33203,-85.33203 47.12891,0.004 85.33203,38.20703 85.33203,85.33203 0,47.12891 -38.20703,85.33594 -85.33594,85.33594 z m 0,0"
         id="path817" />
      <path
         style="fill:#ffffff;stroke:#ffffff;stroke-width:15"
         d="m 423.37109,119.34766 c 0,16.96484 -13.7539,30.71875 -30.71875,30.71875 -16.96875,0 -30.72265,-13.75391 -30.72265,-30.71875 0,-16.96875 13.7539,-30.72266 30.72265,-30.72266 16.96485,0 30.71875,13.75391 30.71875,30.72266 z m 0,0"
         id="path819" />
    </g>
  </g>
</svg>

