<?xml version="1.0" encoding="UTF-8" standalone="no"?>
<svg
   xmlns:dc="http://purl.org/dc/elements/1.1/"
   xmlns:cc="http://creativecommons.org/ns#"
   xmlns:rdf="http://www.w3.org/1999/02/22-rdf-syntax-ns#"
   xmlns:svg="http://www.w3.org/2000/svg"
   xmlns="http://www.w3.org/2000/svg"
   id="svg8"
   version="1.1"
   viewBox="0 0 139.43541 139.43542"
   height="139.43542mm"
   width="139.43541mm">
  <defs
     id="defs2" />
  <metadata
     id="metadata5">
    <rdf:RDF>
      <cc:Work
         rdf:about="">
        <dc:format>image/svg+xml</dc:format>
        <dc:type
           rdf:resource="http://purl.org/dc/dcmitype/StillImage" />
        <dc:title></dc:title>
      </cc:Work>
    </rdf:RDF>
  </metadata>
  <g
     transform="translate(-39.736525,-66.784918)"
     id="layer1">
    <path
       style="fill:#ffffff;stroke:#ffffff;stroke-width:3.96875"
       d="m 177.18756,136.50262 c 0,-37.412079 -30.32125,-67.733327 -67.73333,-67.733327 -37.41208,0 -67.73333,30.321248 -67.73333,67.733327 0,37.41209 30.32125,67.73334 67.73333,67.73334 0.39687,0 0.79375,0 1.19062,-0.0265 v -52.705 H 96.09277 v -16.95975 h 14.55208 v -12.48833 c 0,-14.47271 8.83709,-22.357299 21.74875,-22.357299 6.19125,0 11.50938,0.449799 13.04396,0.661459 v 15.13417 h -8.89 c -7.01146,0 -8.38729,3.33375 -8.38729,8.22854 v 10.795 h 16.80104 l -2.19604,16.95979 h -14.605 v 50.13854 c 28.31041,-8.12271 49.02729,-34.18416 49.02729,-65.11396 z"
       id="path917" />
  </g>
</svg>
